<?xml version="1.0" encoding="UTF-8"?>
<svg width="12px" height="8px" viewBox="0 0 12 8" version="1.1" xmlns="http://www.w3.org/2000/svg" xmlns:xlink="http://www.w3.org/1999/xlink">
    <!-- Generator: sketchtool 64 (101010) - https://sketch.com -->
    <title>D2795424-A577-4EFC-B170-101CDB43078D@0.5x</title>
    <desc>Created with sketchtool.</desc>
    <g id="Page-1" stroke="none" stroke-width="1" fill="none" fill-rule="evenodd">
        <g id="8.0-Choose-Language" transform="translate(-302.000000, -233.000000)">
            <g id="Group-4" transform="translate(24.000000, 217.000000)">
                <g id="icon-/-chevron" transform="translate(284.000000, 20.000000) rotate(-90.000000) translate(-284.000000, -20.000000) translate(272.000000, 8.000000)">
                    <g id="Assets-/-Icon-/-Chev-/-Right" transform="translate(12.000000, 12.000000) scale(-1, 1) translate(-12.000000, -12.000000) ">
                        <rect id="Rectangle" x="0" y="0" width="24" height="24"></rect>
                        <path d="M12.6177456,15.2807579 C12.2617889,15.6258841 11.6125292,15.5559391 11.1675834,15.1245313 L6.33370936,10.4377343 C5.88876355,10.0063266 5.88876355,9.30687643 6.33370936,8.87546868 C6.77865518,8.44406093 7.50005488,8.44406093 7.94500069,8.87546868 L11.973229,12.7811328 L16.1625865,8.71924212 C16.5185431,8.37411592 17.1678029,8.44406093 17.6127487,8.87546868 C18.0576945,9.30687643 18.1298345,9.93638158 17.7738778,10.2815078 L12.6177456,15.2807579 Z" id="Solid" fill="#FFFFFF" transform="translate(12.000000, 12.000000) rotate(-90.000000) translate(-12.000000, -12.000000) "></path>
                    </g>
                </g>
            </g>
        </g>
    </g>
</svg>